G04 #@! TF.FileFunction,Legend,Bot*
%FSLAX46Y46*%
G04 Gerber Fmt 4.6, Leading zero omitted, Abs format (unit mm)*
G04 Created by KiCad (PCBNEW (2016-06-01 BZR 6870, Git 0ccd3bb)-product) date 07/21/16 14:30:39*
%MOMM*%
%LPD*%
G01*
G04 APERTURE LIST*
%ADD10C,0.150000*%
%ADD11C,0.200000*%
%ADD12C,0.500000*%
%ADD13C,0.300000*%
G04 APERTURE END LIST*
D10*
D11*
X65650000Y-42800000D02*
X66150000Y-42800000D01*
X65900000Y-43150000D02*
X65900000Y-42800000D01*
X64950000Y-43150000D02*
X66850000Y-43150000D01*
X66600000Y-43700000D02*
X69250000Y-43700000D01*
D12*
X66600000Y-43700000D02*
X66600000Y-43700000D01*
X65200000Y-43700000D02*
X65200000Y-43700000D01*
D11*
X65200000Y-43700000D02*
X62750000Y-43700000D01*
X69250000Y-42500000D02*
X69250000Y-45000000D01*
X62750000Y-42500000D02*
X62750000Y-45000000D01*
D10*
X66714285Y-33561904D02*
X67095238Y-33561904D01*
X67095238Y-32761904D01*
X66447619Y-33142857D02*
X66180952Y-33142857D01*
X66066666Y-33561904D02*
X66447619Y-33561904D01*
X66447619Y-32761904D01*
X66066666Y-32761904D01*
X65723809Y-33561904D02*
X65723809Y-32761904D01*
X65533333Y-32761904D01*
X65419047Y-32800000D01*
X65342857Y-32876190D01*
X65304761Y-32952380D01*
X65266666Y-33104761D01*
X65266666Y-33219047D01*
X65304761Y-33371428D01*
X65342857Y-33447619D01*
X65419047Y-33523809D01*
X65533333Y-33561904D01*
X65723809Y-33561904D01*
X66895238Y-46842857D02*
X66780952Y-46880952D01*
X66742857Y-46919047D01*
X66704761Y-46995238D01*
X66704761Y-47109523D01*
X66742857Y-47185714D01*
X66780952Y-47223809D01*
X66857142Y-47261904D01*
X67161904Y-47261904D01*
X67161904Y-46461904D01*
X66895238Y-46461904D01*
X66819047Y-46500000D01*
X66780952Y-46538095D01*
X66742857Y-46614285D01*
X66742857Y-46690476D01*
X66780952Y-46766666D01*
X66819047Y-46804761D01*
X66895238Y-46842857D01*
X67161904Y-46842857D01*
X66400000Y-47033333D02*
X66019047Y-47033333D01*
X66476190Y-47261904D02*
X66209523Y-46461904D01*
X65942857Y-47261904D01*
X65790476Y-46461904D02*
X65333333Y-46461904D01*
X65561904Y-47261904D02*
X65561904Y-46461904D01*
X65180952Y-46461904D02*
X64723809Y-46461904D01*
X64952380Y-47261904D02*
X64952380Y-46461904D01*
D13*
X70071428Y-31507142D02*
X68928571Y-31507142D01*
X69500000Y-32078571D02*
X69500000Y-30935714D01*
X63471428Y-31507142D02*
X62328571Y-31507142D01*
D10*
X69966666Y-34336904D02*
X69433333Y-34336904D01*
X69966666Y-35136904D01*
X69433333Y-35136904D01*
X68785714Y-35136904D02*
X68785714Y-34717857D01*
X68823809Y-34641666D01*
X68900000Y-34603571D01*
X69052380Y-34603571D01*
X69128571Y-34641666D01*
X68785714Y-35098809D02*
X68861904Y-35136904D01*
X69052380Y-35136904D01*
X69128571Y-35098809D01*
X69166666Y-35022619D01*
X69166666Y-34946428D01*
X69128571Y-34870238D01*
X69052380Y-34832142D01*
X68861904Y-34832142D01*
X68785714Y-34794047D01*
X68404761Y-34603571D02*
X68404761Y-35403571D01*
X68404761Y-34641666D02*
X68328571Y-34603571D01*
X68176190Y-34603571D01*
X68100000Y-34641666D01*
X68061904Y-34679761D01*
X68023809Y-34755952D01*
X68023809Y-34984523D01*
X68061904Y-35060714D01*
X68100000Y-35098809D01*
X68176190Y-35136904D01*
X68328571Y-35136904D01*
X68404761Y-35098809D01*
X67147619Y-34336904D02*
X66957142Y-35136904D01*
X66804761Y-34565476D01*
X66652380Y-35136904D01*
X66461904Y-34336904D01*
X65814285Y-35136904D02*
X65814285Y-34717857D01*
X65852380Y-34641666D01*
X65928571Y-34603571D01*
X66080952Y-34603571D01*
X66157142Y-34641666D01*
X65814285Y-35098809D02*
X65890476Y-35136904D01*
X66080952Y-35136904D01*
X66157142Y-35098809D01*
X66195238Y-35022619D01*
X66195238Y-34946428D01*
X66157142Y-34870238D01*
X66080952Y-34832142D01*
X65890476Y-34832142D01*
X65814285Y-34794047D01*
X65433333Y-34603571D02*
X65433333Y-35136904D01*
X65433333Y-34679761D02*
X65395238Y-34641666D01*
X65319047Y-34603571D01*
X65204761Y-34603571D01*
X65128571Y-34641666D01*
X65090476Y-34717857D01*
X65090476Y-35136904D01*
X64366666Y-35136904D02*
X64366666Y-34336904D01*
X64366666Y-35098809D02*
X64442857Y-35136904D01*
X64595238Y-35136904D01*
X64671428Y-35098809D01*
X64709523Y-35060714D01*
X64747619Y-34984523D01*
X64747619Y-34755952D01*
X64709523Y-34679761D01*
X64671428Y-34641666D01*
X64595238Y-34603571D01*
X64442857Y-34603571D01*
X64366666Y-34641666D01*
X63490476Y-34336904D02*
X63223809Y-35136904D01*
X62957142Y-34336904D01*
X62271428Y-35136904D02*
X62728571Y-35136904D01*
X62500000Y-35136904D02*
X62500000Y-34336904D01*
X62576190Y-34451190D01*
X62652380Y-34527380D01*
X62728571Y-34565476D01*
X71338095Y-35953571D02*
X71338095Y-36753571D01*
X71338095Y-35991666D02*
X71261904Y-35953571D01*
X71109523Y-35953571D01*
X71033333Y-35991666D01*
X70995238Y-36029761D01*
X70957142Y-36105952D01*
X70957142Y-36334523D01*
X70995238Y-36410714D01*
X71033333Y-36448809D01*
X71109523Y-36486904D01*
X71261904Y-36486904D01*
X71338095Y-36448809D01*
X70271428Y-36448809D02*
X70347619Y-36486904D01*
X70500000Y-36486904D01*
X70576190Y-36448809D01*
X70614285Y-36410714D01*
X70652380Y-36334523D01*
X70652380Y-36105952D01*
X70614285Y-36029761D01*
X70576190Y-35991666D01*
X70500000Y-35953571D01*
X70347619Y-35953571D01*
X70271428Y-35991666D01*
X69928571Y-36486904D02*
X69928571Y-35686904D01*
X69928571Y-35991666D02*
X69852380Y-35953571D01*
X69700000Y-35953571D01*
X69623809Y-35991666D01*
X69585714Y-36029761D01*
X69547619Y-36105952D01*
X69547619Y-36334523D01*
X69585714Y-36410714D01*
X69623809Y-36448809D01*
X69700000Y-36486904D01*
X69852380Y-36486904D01*
X69928571Y-36448809D01*
X68709523Y-36105952D02*
X68747619Y-36067857D01*
X68823809Y-36029761D01*
X68900000Y-36029761D01*
X68976190Y-36067857D01*
X69014285Y-36105952D01*
X69052380Y-36182142D01*
X69052380Y-36258333D01*
X69014285Y-36334523D01*
X68976190Y-36372619D01*
X68900000Y-36410714D01*
X68823809Y-36410714D01*
X68747619Y-36372619D01*
X68709523Y-36334523D01*
X68709523Y-36029761D02*
X68709523Y-36334523D01*
X68671428Y-36372619D01*
X68633333Y-36372619D01*
X68557142Y-36334523D01*
X68519047Y-36258333D01*
X68519047Y-36067857D01*
X68595238Y-35953571D01*
X68709523Y-35877380D01*
X68861904Y-35839285D01*
X69014285Y-35877380D01*
X69128571Y-35953571D01*
X69204761Y-36067857D01*
X69242857Y-36220238D01*
X69204761Y-36372619D01*
X69128571Y-36486904D01*
X69014285Y-36563095D01*
X68861904Y-36601190D01*
X68709523Y-36563095D01*
X68595238Y-36486904D01*
X68176190Y-36486904D02*
X68176190Y-35686904D01*
X67833333Y-36486904D02*
X67833333Y-36067857D01*
X67871428Y-35991666D01*
X67947619Y-35953571D01*
X68061904Y-35953571D01*
X68138095Y-35991666D01*
X68176190Y-36029761D01*
X67109523Y-36486904D02*
X67109523Y-36067857D01*
X67147619Y-35991666D01*
X67223809Y-35953571D01*
X67376190Y-35953571D01*
X67452380Y-35991666D01*
X67109523Y-36448809D02*
X67185714Y-36486904D01*
X67376190Y-36486904D01*
X67452380Y-36448809D01*
X67490476Y-36372619D01*
X67490476Y-36296428D01*
X67452380Y-36220238D01*
X67376190Y-36182142D01*
X67185714Y-36182142D01*
X67109523Y-36144047D01*
X66728571Y-36486904D02*
X66728571Y-35953571D01*
X66728571Y-36105952D02*
X66690476Y-36029761D01*
X66652380Y-35991666D01*
X66576190Y-35953571D01*
X66500000Y-35953571D01*
X66233333Y-36486904D02*
X66233333Y-35686904D01*
X66157142Y-36182142D02*
X65928571Y-36486904D01*
X65928571Y-35953571D02*
X66233333Y-36258333D01*
X65471428Y-36486904D02*
X65547619Y-36448809D01*
X65585714Y-36410714D01*
X65623809Y-36334523D01*
X65623809Y-36105952D01*
X65585714Y-36029761D01*
X65547619Y-35991666D01*
X65471428Y-35953571D01*
X65357142Y-35953571D01*
X65280952Y-35991666D01*
X65242857Y-36029761D01*
X65204761Y-36105952D01*
X65204761Y-36334523D01*
X65242857Y-36410714D01*
X65280952Y-36448809D01*
X65357142Y-36486904D01*
X65471428Y-36486904D01*
X64861904Y-35953571D02*
X64861904Y-36486904D01*
X64861904Y-36029761D02*
X64823809Y-35991666D01*
X64747619Y-35953571D01*
X64633333Y-35953571D01*
X64557142Y-35991666D01*
X64519047Y-36067857D01*
X64519047Y-36486904D01*
X63833333Y-36448809D02*
X63909523Y-36486904D01*
X64061904Y-36486904D01*
X64138095Y-36448809D01*
X64176190Y-36372619D01*
X64176190Y-36067857D01*
X64138095Y-35991666D01*
X64061904Y-35953571D01*
X63909523Y-35953571D01*
X63833333Y-35991666D01*
X63795238Y-36067857D01*
X63795238Y-36144047D01*
X64176190Y-36220238D01*
X63452380Y-35953571D02*
X63452380Y-36486904D01*
X63452380Y-36029761D02*
X63414285Y-35991666D01*
X63338095Y-35953571D01*
X63223809Y-35953571D01*
X63147619Y-35991666D01*
X63109523Y-36067857D01*
X63109523Y-36486904D01*
X62728571Y-36410714D02*
X62690476Y-36448809D01*
X62728571Y-36486904D01*
X62766666Y-36448809D01*
X62728571Y-36410714D01*
X62728571Y-36486904D01*
X62347619Y-35953571D02*
X62347619Y-36486904D01*
X62347619Y-36029761D02*
X62309523Y-35991666D01*
X62233333Y-35953571D01*
X62119047Y-35953571D01*
X62042857Y-35991666D01*
X62004761Y-36067857D01*
X62004761Y-36486904D01*
X61319047Y-36448809D02*
X61395238Y-36486904D01*
X61547619Y-36486904D01*
X61623809Y-36448809D01*
X61661904Y-36372619D01*
X61661904Y-36067857D01*
X61623809Y-35991666D01*
X61547619Y-35953571D01*
X61395238Y-35953571D01*
X61319047Y-35991666D01*
X61280952Y-36067857D01*
X61280952Y-36144047D01*
X61661904Y-36220238D01*
X61052380Y-35953571D02*
X60747619Y-35953571D01*
X60938095Y-35686904D02*
X60938095Y-36372619D01*
X60900000Y-36448809D01*
X60823809Y-36486904D01*
X60747619Y-36486904D01*
X68614285Y-37836904D02*
X69071428Y-37836904D01*
X68842857Y-37836904D02*
X68842857Y-37036904D01*
X68919047Y-37151190D01*
X68995238Y-37227380D01*
X69071428Y-37265476D01*
X68233333Y-37836904D02*
X68080952Y-37836904D01*
X68004761Y-37798809D01*
X67966666Y-37760714D01*
X67890476Y-37646428D01*
X67852380Y-37494047D01*
X67852380Y-37189285D01*
X67890476Y-37113095D01*
X67928571Y-37075000D01*
X68004761Y-37036904D01*
X68157142Y-37036904D01*
X68233333Y-37075000D01*
X68271428Y-37113095D01*
X68309523Y-37189285D01*
X68309523Y-37379761D01*
X68271428Y-37455952D01*
X68233333Y-37494047D01*
X68157142Y-37532142D01*
X68004761Y-37532142D01*
X67928571Y-37494047D01*
X67890476Y-37455952D01*
X67852380Y-37379761D01*
X66938095Y-36998809D02*
X67623809Y-38027380D01*
X66519047Y-37036904D02*
X66442857Y-37036904D01*
X66366666Y-37075000D01*
X66328571Y-37113095D01*
X66290476Y-37189285D01*
X66252380Y-37341666D01*
X66252380Y-37532142D01*
X66290476Y-37684523D01*
X66328571Y-37760714D01*
X66366666Y-37798809D01*
X66442857Y-37836904D01*
X66519047Y-37836904D01*
X66595238Y-37798809D01*
X66633333Y-37760714D01*
X66671428Y-37684523D01*
X66709523Y-37532142D01*
X66709523Y-37341666D01*
X66671428Y-37189285D01*
X66633333Y-37113095D01*
X66595238Y-37075000D01*
X66519047Y-37036904D01*
X65985714Y-37036904D02*
X65452380Y-37036904D01*
X65795238Y-37836904D01*
X64576190Y-36998809D02*
X65261904Y-38027380D01*
X63890476Y-37836904D02*
X64347619Y-37836904D01*
X64119047Y-37836904D02*
X64119047Y-37036904D01*
X64195238Y-37151190D01*
X64271428Y-37227380D01*
X64347619Y-37265476D01*
X63204761Y-37036904D02*
X63357142Y-37036904D01*
X63433333Y-37075000D01*
X63471428Y-37113095D01*
X63547619Y-37227380D01*
X63585714Y-37379761D01*
X63585714Y-37684523D01*
X63547619Y-37760714D01*
X63509523Y-37798809D01*
X63433333Y-37836904D01*
X63280952Y-37836904D01*
X63204761Y-37798809D01*
X63166666Y-37760714D01*
X63128571Y-37684523D01*
X63128571Y-37494047D01*
X63166666Y-37417857D01*
X63204761Y-37379761D01*
X63280952Y-37341666D01*
X63433333Y-37341666D01*
X63509523Y-37379761D01*
X63547619Y-37417857D01*
X63585714Y-37494047D01*
X69338095Y-38653571D02*
X69338095Y-39301190D01*
X69376190Y-39377380D01*
X69414285Y-39415476D01*
X69490476Y-39453571D01*
X69604761Y-39453571D01*
X69680952Y-39415476D01*
X69338095Y-39148809D02*
X69414285Y-39186904D01*
X69566666Y-39186904D01*
X69642857Y-39148809D01*
X69680952Y-39110714D01*
X69719047Y-39034523D01*
X69719047Y-38805952D01*
X69680952Y-38729761D01*
X69642857Y-38691666D01*
X69566666Y-38653571D01*
X69414285Y-38653571D01*
X69338095Y-38691666D01*
X68957142Y-39186904D02*
X68957142Y-38653571D01*
X68957142Y-38386904D02*
X68995238Y-38425000D01*
X68957142Y-38463095D01*
X68919047Y-38425000D01*
X68957142Y-38386904D01*
X68957142Y-38463095D01*
X68690476Y-38653571D02*
X68385714Y-38653571D01*
X68576190Y-38386904D02*
X68576190Y-39072619D01*
X68538095Y-39148809D01*
X68461904Y-39186904D01*
X68385714Y-39186904D01*
X68119047Y-39110714D02*
X68080952Y-39148809D01*
X68119047Y-39186904D01*
X68157142Y-39148809D01*
X68119047Y-39110714D01*
X68119047Y-39186904D01*
X67738095Y-39186904D02*
X67738095Y-38653571D01*
X67738095Y-38386904D02*
X67776190Y-38425000D01*
X67738095Y-38463095D01*
X67700000Y-38425000D01*
X67738095Y-38386904D01*
X67738095Y-38463095D01*
X67242857Y-39186904D02*
X67319047Y-39148809D01*
X67357142Y-39110714D01*
X67395238Y-39034523D01*
X67395238Y-38805952D01*
X67357142Y-38729761D01*
X67319047Y-38691666D01*
X67242857Y-38653571D01*
X67128571Y-38653571D01*
X67052380Y-38691666D01*
X67014285Y-38729761D01*
X66976190Y-38805952D01*
X66976190Y-39034523D01*
X67014285Y-39110714D01*
X67052380Y-39148809D01*
X67128571Y-39186904D01*
X67242857Y-39186904D01*
X66061904Y-38348809D02*
X66747619Y-39377380D01*
X65871428Y-38653571D02*
X65680952Y-39186904D01*
X65490476Y-38653571D01*
X65185714Y-39186904D02*
X65185714Y-38386904D01*
X64728571Y-39186904D02*
X65071428Y-38729761D01*
X64728571Y-38386904D02*
X65185714Y-38844047D01*
X64271428Y-39186904D02*
X64347619Y-39148809D01*
X64385714Y-39110714D01*
X64423809Y-39034523D01*
X64423809Y-38805952D01*
X64385714Y-38729761D01*
X64347619Y-38691666D01*
X64271428Y-38653571D01*
X64157142Y-38653571D01*
X64080952Y-38691666D01*
X64042857Y-38729761D01*
X64004761Y-38805952D01*
X64004761Y-39034523D01*
X64042857Y-39110714D01*
X64080952Y-39148809D01*
X64157142Y-39186904D01*
X64271428Y-39186904D01*
X63357142Y-39148809D02*
X63433333Y-39186904D01*
X63585714Y-39186904D01*
X63661904Y-39148809D01*
X63700000Y-39072619D01*
X63700000Y-38767857D01*
X63661904Y-38691666D01*
X63585714Y-38653571D01*
X63433333Y-38653571D01*
X63357142Y-38691666D01*
X63319047Y-38767857D01*
X63319047Y-38844047D01*
X63700000Y-38920238D01*
X63052380Y-38653571D02*
X62900000Y-39186904D01*
X62747619Y-38805952D01*
X62595238Y-39186904D01*
X62442857Y-38653571D01*
D13*
X63271428Y-48507142D02*
X62128571Y-48507142D01*
X69871428Y-48507142D02*
X68728571Y-48507142D01*
X69300000Y-49078571D02*
X69300000Y-47935714D01*
M02*
