G04 #@! TF.FileFunction,Copper,L2,Bot,Signal*
%FSLAX46Y46*%
G04 Gerber Fmt 4.6, Leading zero omitted, Abs format (unit mm)*
G04 Created by KiCad (PCBNEW (2016-06-01 BZR 6870, Git 0ccd3bb)-product) date 07/21/16 14:30:39*
%MOMM*%
%LPD*%
G01*
G04 APERTURE LIST*
%ADD10C,0.150000*%
%ADD11C,2.000000*%
%ADD12R,1.900000X1.900000*%
%ADD13C,1.900000*%
%ADD14C,0.600000*%
%ADD15C,0.254000*%
G04 APERTURE END LIST*
D10*
D11*
X62750000Y-41500000D03*
X62750000Y-46000000D03*
X69250000Y-41500000D03*
X69250000Y-46000000D03*
D12*
X64730000Y-48500000D03*
D13*
X67270000Y-48500000D03*
D12*
X64930000Y-31500000D03*
D13*
X67470000Y-31500000D03*
D14*
X65649999Y-43575001D03*
X68972589Y-38887101D03*
X67096445Y-35396445D03*
D15*
G36*
X63345000Y-31214250D02*
X63503750Y-31373000D01*
X64803000Y-31373000D01*
X64803000Y-31353000D01*
X65057000Y-31353000D01*
X65057000Y-31373000D01*
X65077000Y-31373000D01*
X65077000Y-31627000D01*
X65057000Y-31627000D01*
X65057000Y-32926250D01*
X65215750Y-33085000D01*
X66006309Y-33085000D01*
X66239698Y-32988327D01*
X66418327Y-32809699D01*
X66453375Y-32725086D01*
X66570997Y-32842914D01*
X67153341Y-33084724D01*
X67783893Y-33085275D01*
X68366657Y-32844481D01*
X68812914Y-32399003D01*
X69054724Y-31816659D01*
X69055275Y-31186107D01*
X68848221Y-30685000D01*
X70932534Y-30685000D01*
X71115409Y-30721376D01*
X71213250Y-30786751D01*
X71278624Y-30884590D01*
X71315000Y-31067466D01*
X71315000Y-48932534D01*
X71278624Y-49115410D01*
X71213250Y-49213249D01*
X71115409Y-49278624D01*
X70932534Y-49315000D01*
X68647795Y-49315000D01*
X68854724Y-48816659D01*
X68855275Y-48186107D01*
X68614481Y-47603343D01*
X68449300Y-47437873D01*
X68923352Y-47634716D01*
X69573795Y-47635284D01*
X70174943Y-47386894D01*
X70635278Y-46927363D01*
X70884716Y-46326648D01*
X70885284Y-45676205D01*
X70636894Y-45075057D01*
X70177363Y-44614722D01*
X69576648Y-44365284D01*
X68926205Y-44364716D01*
X68325057Y-44613106D01*
X67864722Y-45072637D01*
X67615284Y-45673352D01*
X67614716Y-46323795D01*
X67863106Y-46924943D01*
X68042341Y-47104491D01*
X67586659Y-46915276D01*
X66956107Y-46914725D01*
X66373343Y-47155519D01*
X66253481Y-47275171D01*
X66218327Y-47190301D01*
X66039698Y-47011673D01*
X65806309Y-46915000D01*
X65015750Y-46915000D01*
X64857000Y-47073750D01*
X64857000Y-48373000D01*
X64877000Y-48373000D01*
X64877000Y-48627000D01*
X64857000Y-48627000D01*
X64857000Y-48647000D01*
X64603000Y-48647000D01*
X64603000Y-48627000D01*
X63303750Y-48627000D01*
X63145000Y-48785750D01*
X63145000Y-49315000D01*
X61067466Y-49315000D01*
X60884590Y-49278624D01*
X60786751Y-49213250D01*
X60721376Y-49115409D01*
X60685000Y-48932534D01*
X60685000Y-46323795D01*
X61114716Y-46323795D01*
X61363106Y-46924943D01*
X61822637Y-47385278D01*
X62423352Y-47634716D01*
X63073795Y-47635284D01*
X63145000Y-47605863D01*
X63145000Y-48214250D01*
X63303750Y-48373000D01*
X64603000Y-48373000D01*
X64603000Y-47073750D01*
X64444250Y-46915000D01*
X64140412Y-46915000D01*
X64384716Y-46326648D01*
X64385284Y-45676205D01*
X64136894Y-45075057D01*
X63677363Y-44614722D01*
X63076648Y-44365284D01*
X62426205Y-44364716D01*
X61825057Y-44613106D01*
X61364722Y-45072637D01*
X61115284Y-45673352D01*
X61114716Y-46323795D01*
X60685000Y-46323795D01*
X60685000Y-41823795D01*
X61114716Y-41823795D01*
X61363106Y-42424943D01*
X61822637Y-42885278D01*
X62423352Y-43134716D01*
X63073795Y-43135284D01*
X63674943Y-42886894D01*
X64135278Y-42427363D01*
X64384716Y-41826648D01*
X64384718Y-41823795D01*
X67614716Y-41823795D01*
X67863106Y-42424943D01*
X68322637Y-42885278D01*
X68923352Y-43134716D01*
X69573795Y-43135284D01*
X70174943Y-42886894D01*
X70635278Y-42427363D01*
X70884716Y-41826648D01*
X70885284Y-41176205D01*
X70636894Y-40575057D01*
X70177363Y-40114722D01*
X69576648Y-39865284D01*
X68926205Y-39864716D01*
X68325057Y-40113106D01*
X67864722Y-40572637D01*
X67615284Y-41173352D01*
X67614716Y-41823795D01*
X64384718Y-41823795D01*
X64385284Y-41176205D01*
X64136894Y-40575057D01*
X63677363Y-40114722D01*
X63076648Y-39865284D01*
X62426205Y-39864716D01*
X61825057Y-40113106D01*
X61364722Y-40572637D01*
X61115284Y-41173352D01*
X61114716Y-41823795D01*
X60685000Y-41823795D01*
X60685000Y-31785750D01*
X63345000Y-31785750D01*
X63345000Y-32576310D01*
X63441673Y-32809699D01*
X63620302Y-32988327D01*
X63853691Y-33085000D01*
X64644250Y-33085000D01*
X64803000Y-32926250D01*
X64803000Y-31627000D01*
X63503750Y-31627000D01*
X63345000Y-31785750D01*
X60685000Y-31785750D01*
X60685000Y-31067466D01*
X60721376Y-30884591D01*
X60786751Y-30786750D01*
X60884590Y-30721376D01*
X61067466Y-30685000D01*
X63345000Y-30685000D01*
X63345000Y-31214250D01*
X63345000Y-31214250D01*
G37*
X63345000Y-31214250D02*
X63503750Y-31373000D01*
X64803000Y-31373000D01*
X64803000Y-31353000D01*
X65057000Y-31353000D01*
X65057000Y-31373000D01*
X65077000Y-31373000D01*
X65077000Y-31627000D01*
X65057000Y-31627000D01*
X65057000Y-32926250D01*
X65215750Y-33085000D01*
X66006309Y-33085000D01*
X66239698Y-32988327D01*
X66418327Y-32809699D01*
X66453375Y-32725086D01*
X66570997Y-32842914D01*
X67153341Y-33084724D01*
X67783893Y-33085275D01*
X68366657Y-32844481D01*
X68812914Y-32399003D01*
X69054724Y-31816659D01*
X69055275Y-31186107D01*
X68848221Y-30685000D01*
X70932534Y-30685000D01*
X71115409Y-30721376D01*
X71213250Y-30786751D01*
X71278624Y-30884590D01*
X71315000Y-31067466D01*
X71315000Y-48932534D01*
X71278624Y-49115410D01*
X71213250Y-49213249D01*
X71115409Y-49278624D01*
X70932534Y-49315000D01*
X68647795Y-49315000D01*
X68854724Y-48816659D01*
X68855275Y-48186107D01*
X68614481Y-47603343D01*
X68449300Y-47437873D01*
X68923352Y-47634716D01*
X69573795Y-47635284D01*
X70174943Y-47386894D01*
X70635278Y-46927363D01*
X70884716Y-46326648D01*
X70885284Y-45676205D01*
X70636894Y-45075057D01*
X70177363Y-44614722D01*
X69576648Y-44365284D01*
X68926205Y-44364716D01*
X68325057Y-44613106D01*
X67864722Y-45072637D01*
X67615284Y-45673352D01*
X67614716Y-46323795D01*
X67863106Y-46924943D01*
X68042341Y-47104491D01*
X67586659Y-46915276D01*
X66956107Y-46914725D01*
X66373343Y-47155519D01*
X66253481Y-47275171D01*
X66218327Y-47190301D01*
X66039698Y-47011673D01*
X65806309Y-46915000D01*
X65015750Y-46915000D01*
X64857000Y-47073750D01*
X64857000Y-48373000D01*
X64877000Y-48373000D01*
X64877000Y-48627000D01*
X64857000Y-48627000D01*
X64857000Y-48647000D01*
X64603000Y-48647000D01*
X64603000Y-48627000D01*
X63303750Y-48627000D01*
X63145000Y-48785750D01*
X63145000Y-49315000D01*
X61067466Y-49315000D01*
X60884590Y-49278624D01*
X60786751Y-49213250D01*
X60721376Y-49115409D01*
X60685000Y-48932534D01*
X60685000Y-46323795D01*
X61114716Y-46323795D01*
X61363106Y-46924943D01*
X61822637Y-47385278D01*
X62423352Y-47634716D01*
X63073795Y-47635284D01*
X63145000Y-47605863D01*
X63145000Y-48214250D01*
X63303750Y-48373000D01*
X64603000Y-48373000D01*
X64603000Y-47073750D01*
X64444250Y-46915000D01*
X64140412Y-46915000D01*
X64384716Y-46326648D01*
X64385284Y-45676205D01*
X64136894Y-45075057D01*
X63677363Y-44614722D01*
X63076648Y-44365284D01*
X62426205Y-44364716D01*
X61825057Y-44613106D01*
X61364722Y-45072637D01*
X61115284Y-45673352D01*
X61114716Y-46323795D01*
X60685000Y-46323795D01*
X60685000Y-41823795D01*
X61114716Y-41823795D01*
X61363106Y-42424943D01*
X61822637Y-42885278D01*
X62423352Y-43134716D01*
X63073795Y-43135284D01*
X63674943Y-42886894D01*
X64135278Y-42427363D01*
X64384716Y-41826648D01*
X64384718Y-41823795D01*
X67614716Y-41823795D01*
X67863106Y-42424943D01*
X68322637Y-42885278D01*
X68923352Y-43134716D01*
X69573795Y-43135284D01*
X70174943Y-42886894D01*
X70635278Y-42427363D01*
X70884716Y-41826648D01*
X70885284Y-41176205D01*
X70636894Y-40575057D01*
X70177363Y-40114722D01*
X69576648Y-39865284D01*
X68926205Y-39864716D01*
X68325057Y-40113106D01*
X67864722Y-40572637D01*
X67615284Y-41173352D01*
X67614716Y-41823795D01*
X64384718Y-41823795D01*
X64385284Y-41176205D01*
X64136894Y-40575057D01*
X63677363Y-40114722D01*
X63076648Y-39865284D01*
X62426205Y-39864716D01*
X61825057Y-40113106D01*
X61364722Y-40572637D01*
X61115284Y-41173352D01*
X61114716Y-41823795D01*
X60685000Y-41823795D01*
X60685000Y-31785750D01*
X63345000Y-31785750D01*
X63345000Y-32576310D01*
X63441673Y-32809699D01*
X63620302Y-32988327D01*
X63853691Y-33085000D01*
X64644250Y-33085000D01*
X64803000Y-32926250D01*
X64803000Y-31627000D01*
X63503750Y-31627000D01*
X63345000Y-31785750D01*
X60685000Y-31785750D01*
X60685000Y-31067466D01*
X60721376Y-30884591D01*
X60786751Y-30786750D01*
X60884590Y-30721376D01*
X61067466Y-30685000D01*
X63345000Y-30685000D01*
X63345000Y-31214250D01*
M02*
