G04 #@! TF.FileFunction,Legend,Top*
%FSLAX46Y46*%
G04 Gerber Fmt 4.6, Leading zero omitted, Abs format (unit mm)*
G04 Created by KiCad (PCBNEW (2016-06-01 BZR 6870, Git 0ccd3bb)-product) date 07/21/16 14:30:39*
%MOMM*%
%LPD*%
G01*
G04 APERTURE LIST*
%ADD10C,0.150000*%
G04 APERTURE END LIST*
D10*
X66350000Y-36900000D02*
X65950000Y-36900000D01*
X65950000Y-36900000D02*
X65950000Y-35400000D01*
X65950000Y-35400000D02*
X66950000Y-35400000D01*
X66950000Y-35400000D02*
X66950000Y-36300000D01*
X66950000Y-36300000D02*
X66350000Y-36900000D01*
X69775000Y-34250000D02*
X69775000Y-34250000D01*
X69775000Y-34250000D02*
X69775000Y-32950000D01*
X69775000Y-32950000D02*
X70025000Y-32950000D01*
X70025000Y-32950000D02*
X70025000Y-34000000D01*
X70025000Y-34000000D02*
X69775000Y-34250000D01*
X64050000Y-35775000D02*
X64050000Y-36025000D01*
X64050000Y-36025000D02*
X62950000Y-36025000D01*
X62950000Y-36025000D02*
X62950000Y-35775000D01*
X62950000Y-35775000D02*
X64050000Y-35775000D01*
X68975000Y-37775000D02*
X69225000Y-37775000D01*
X69225000Y-37775000D02*
X69225000Y-38425000D01*
X69225000Y-38425000D02*
X68975000Y-38425000D01*
X68975000Y-38425000D02*
X68975000Y-37775000D01*
X61425000Y-36225000D02*
X61425000Y-35975000D01*
X61425000Y-35975000D02*
X62075000Y-35975000D01*
X62075000Y-35975000D02*
X62075000Y-36225000D01*
X62075000Y-36225000D02*
X61425000Y-36225000D01*
X69975000Y-31175000D02*
X70225000Y-31175000D01*
X70225000Y-31175000D02*
X70225000Y-31825000D01*
X70225000Y-31825000D02*
X69975000Y-31825000D01*
X69975000Y-31825000D02*
X69975000Y-31175000D01*
X68975000Y-39275000D02*
X69225000Y-39275000D01*
X69225000Y-39275000D02*
X69225000Y-39925000D01*
X69225000Y-39925000D02*
X68975000Y-39925000D01*
X68975000Y-39925000D02*
X68975000Y-39275000D01*
X62675000Y-38725000D02*
X62425000Y-38725000D01*
X62425000Y-38725000D02*
X62425000Y-38075000D01*
X62425000Y-38075000D02*
X62675000Y-38075000D01*
X62675000Y-38075000D02*
X62675000Y-38725000D01*
X69775000Y-36275000D02*
X70025000Y-36275000D01*
X70025000Y-36275000D02*
X70025000Y-36925000D01*
X70025000Y-36925000D02*
X69775000Y-36925000D01*
X69775000Y-36925000D02*
X69775000Y-36275000D01*
X65625000Y-46125000D02*
X65375000Y-46125000D01*
X65375000Y-46125000D02*
X65375000Y-45475000D01*
X65375000Y-45475000D02*
X65625000Y-45475000D01*
X65625000Y-45475000D02*
X65625000Y-46125000D01*
X65375000Y-41275000D02*
X65625000Y-41275000D01*
X65625000Y-41275000D02*
X65625000Y-41925000D01*
X65625000Y-41925000D02*
X65375000Y-41925000D01*
X65375000Y-41925000D02*
X65375000Y-41275000D01*
X63460000Y-47230000D02*
X68540000Y-47230000D01*
X68540000Y-47230000D02*
X68540000Y-49770000D01*
X68540000Y-49770000D02*
X63460000Y-49770000D01*
X63460000Y-49770000D02*
X63460000Y-47230000D01*
X63660000Y-30230000D02*
X68740000Y-30230000D01*
X68740000Y-30230000D02*
X68740000Y-32770000D01*
X68740000Y-32770000D02*
X63660000Y-32770000D01*
X63660000Y-32770000D02*
X63660000Y-30230000D01*
X65675000Y-44350000D02*
X65675000Y-44350000D01*
X65675000Y-44350000D02*
X65675000Y-43050000D01*
X65675000Y-43050000D02*
X65925000Y-43050000D01*
X65925000Y-43050000D02*
X65925000Y-44100000D01*
X65925000Y-44100000D02*
X65675000Y-44350000D01*
X61652380Y-34161904D02*
X61195238Y-34161904D01*
X61423809Y-34161904D02*
X61423809Y-33361904D01*
X61347619Y-33476190D01*
X61271428Y-33552380D01*
X61195238Y-33590476D01*
X62147619Y-33361904D02*
X62223809Y-33361904D01*
X62300000Y-33400000D01*
X62338095Y-33438095D01*
X62376190Y-33514285D01*
X62414285Y-33666666D01*
X62414285Y-33857142D01*
X62376190Y-34009523D01*
X62338095Y-34085714D01*
X62300000Y-34123809D01*
X62223809Y-34161904D01*
X62147619Y-34161904D01*
X62071428Y-34123809D01*
X62033333Y-34085714D01*
X61995238Y-34009523D01*
X61957142Y-33857142D01*
X61957142Y-33666666D01*
X61995238Y-33514285D01*
X62033333Y-33438095D01*
X62071428Y-33400000D01*
X62147619Y-33361904D01*
X62757142Y-33628571D02*
X62757142Y-34161904D01*
X62757142Y-33704761D02*
X62795238Y-33666666D01*
X62871428Y-33628571D01*
X62985714Y-33628571D01*
X63061904Y-33666666D01*
X63100000Y-33742857D01*
X63100000Y-34161904D01*
X63480952Y-33704761D02*
X64090476Y-33704761D01*
X63785714Y-34009523D02*
X63785714Y-33400000D01*
X64090476Y-34161904D02*
X63480952Y-34161904D01*
X64890476Y-34161904D02*
X64433333Y-34161904D01*
X64661904Y-34161904D02*
X64661904Y-33361904D01*
X64585714Y-33476190D01*
X64509523Y-33552380D01*
X64433333Y-33590476D01*
X65195238Y-34161904D02*
X65804761Y-33361904D01*
X65309523Y-33361904D02*
X65385714Y-33400000D01*
X65423809Y-33476190D01*
X65385714Y-33552380D01*
X65309523Y-33590476D01*
X65233333Y-33552380D01*
X65195238Y-33476190D01*
X65233333Y-33400000D01*
X65309523Y-33361904D01*
X65766666Y-34123809D02*
X65804761Y-34047619D01*
X65766666Y-33971428D01*
X65690476Y-33933333D01*
X65614285Y-33971428D01*
X65576190Y-34047619D01*
X65614285Y-34123809D01*
X65690476Y-34161904D01*
X65766666Y-34123809D01*
X67004761Y-38461904D02*
X66547619Y-38461904D01*
X66776190Y-38461904D02*
X66776190Y-37661904D01*
X66700000Y-37776190D01*
X66623809Y-37852380D01*
X66547619Y-37890476D01*
X67347619Y-38461904D02*
X67347619Y-37661904D01*
X67423809Y-38157142D02*
X67652380Y-38461904D01*
X67652380Y-37928571D02*
X67347619Y-38233333D01*
X60604761Y-37261904D02*
X60566666Y-37338095D01*
X60528571Y-37376190D01*
X60452380Y-37414285D01*
X60414285Y-37414285D01*
X60338095Y-37376190D01*
X60300000Y-37338095D01*
X60261904Y-37261904D01*
X60261904Y-37109523D01*
X60300000Y-37033333D01*
X60338095Y-36995238D01*
X60414285Y-36957142D01*
X60452380Y-36957142D01*
X60528571Y-36995238D01*
X60566666Y-37033333D01*
X60604761Y-37109523D01*
X60604761Y-37261904D01*
X60642857Y-37338095D01*
X60680952Y-37376190D01*
X60757142Y-37414285D01*
X60909523Y-37414285D01*
X60985714Y-37376190D01*
X61023809Y-37338095D01*
X61061904Y-37261904D01*
X61061904Y-37109523D01*
X61023809Y-37033333D01*
X60985714Y-36995238D01*
X60909523Y-36957142D01*
X60757142Y-36957142D01*
X60680952Y-36995238D01*
X60642857Y-37033333D01*
X60604761Y-37109523D01*
X60338095Y-36652380D02*
X60300000Y-36614285D01*
X60261904Y-36538095D01*
X60261904Y-36347619D01*
X60300000Y-36271428D01*
X60338095Y-36233333D01*
X60414285Y-36195238D01*
X60490476Y-36195238D01*
X60604761Y-36233333D01*
X61061904Y-36690476D01*
X61061904Y-36195238D01*
X60261904Y-35700000D02*
X60261904Y-35623809D01*
X60300000Y-35547619D01*
X60338095Y-35509523D01*
X60414285Y-35471428D01*
X60566666Y-35433333D01*
X60757142Y-35433333D01*
X60909523Y-35471428D01*
X60985714Y-35509523D01*
X61023809Y-35547619D01*
X61061904Y-35623809D01*
X61061904Y-35700000D01*
X61023809Y-35776190D01*
X60985714Y-35814285D01*
X60909523Y-35852380D01*
X60757142Y-35890476D01*
X60566666Y-35890476D01*
X60414285Y-35852380D01*
X60338095Y-35814285D01*
X60300000Y-35776190D01*
X60261904Y-35700000D01*
X61061904Y-35090476D02*
X60261904Y-35090476D01*
X60757142Y-35014285D02*
X61061904Y-34785714D01*
X60528571Y-34785714D02*
X60833333Y-35090476D01*
X66223809Y-39961904D02*
X65766666Y-39961904D01*
X65995238Y-39961904D02*
X65995238Y-39161904D01*
X65919047Y-39276190D01*
X65842857Y-39352380D01*
X65766666Y-39390476D01*
X66719047Y-39161904D02*
X66795238Y-39161904D01*
X66871428Y-39200000D01*
X66909523Y-39238095D01*
X66947619Y-39314285D01*
X66985714Y-39466666D01*
X66985714Y-39657142D01*
X66947619Y-39809523D01*
X66909523Y-39885714D01*
X66871428Y-39923809D01*
X66795238Y-39961904D01*
X66719047Y-39961904D01*
X66642857Y-39923809D01*
X66604761Y-39885714D01*
X66566666Y-39809523D01*
X66528571Y-39657142D01*
X66528571Y-39466666D01*
X66566666Y-39314285D01*
X66604761Y-39238095D01*
X66642857Y-39200000D01*
X66719047Y-39161904D01*
X67328571Y-39961904D02*
X67328571Y-39161904D01*
X67404761Y-39657142D02*
X67633333Y-39961904D01*
X67633333Y-39428571D02*
X67328571Y-39733333D01*
X64423809Y-38761904D02*
X63966666Y-38761904D01*
X64195238Y-38761904D02*
X64195238Y-37961904D01*
X64119047Y-38076190D01*
X64042857Y-38152380D01*
X63966666Y-38190476D01*
X64880952Y-38304761D02*
X64804761Y-38266666D01*
X64766666Y-38228571D01*
X64728571Y-38152380D01*
X64728571Y-38114285D01*
X64766666Y-38038095D01*
X64804761Y-38000000D01*
X64880952Y-37961904D01*
X65033333Y-37961904D01*
X65109523Y-38000000D01*
X65147619Y-38038095D01*
X65185714Y-38114285D01*
X65185714Y-38152380D01*
X65147619Y-38228571D01*
X65109523Y-38266666D01*
X65033333Y-38304761D01*
X64880952Y-38304761D01*
X64804761Y-38342857D01*
X64766666Y-38380952D01*
X64728571Y-38457142D01*
X64728571Y-38609523D01*
X64766666Y-38685714D01*
X64804761Y-38723809D01*
X64880952Y-38761904D01*
X65033333Y-38761904D01*
X65109523Y-38723809D01*
X65147619Y-38685714D01*
X65185714Y-38609523D01*
X65185714Y-38457142D01*
X65147619Y-38380952D01*
X65109523Y-38342857D01*
X65033333Y-38304761D01*
X65528571Y-38761904D02*
X65528571Y-37961904D01*
X65604761Y-38457142D02*
X65833333Y-38761904D01*
X65833333Y-38228571D02*
X65528571Y-38533333D01*
X69385714Y-35961904D02*
X68928571Y-35961904D01*
X69157142Y-35961904D02*
X69157142Y-35161904D01*
X69080952Y-35276190D01*
X69004761Y-35352380D01*
X68928571Y-35390476D01*
X69880952Y-35161904D02*
X69957142Y-35161904D01*
X70033333Y-35200000D01*
X70071428Y-35238095D01*
X70109523Y-35314285D01*
X70147619Y-35466666D01*
X70147619Y-35657142D01*
X70109523Y-35809523D01*
X70071428Y-35885714D01*
X70033333Y-35923809D01*
X69957142Y-35961904D01*
X69880952Y-35961904D01*
X69804761Y-35923809D01*
X69766666Y-35885714D01*
X69728571Y-35809523D01*
X69690476Y-35657142D01*
X69690476Y-35466666D01*
X69728571Y-35314285D01*
X69766666Y-35238095D01*
X69804761Y-35200000D01*
X69880952Y-35161904D01*
X70833333Y-35428571D02*
X70833333Y-35961904D01*
X70490476Y-35428571D02*
X70490476Y-35847619D01*
X70528571Y-35923809D01*
X70604761Y-35961904D01*
X70719047Y-35961904D01*
X70795238Y-35923809D01*
X70833333Y-35885714D01*
X67366666Y-46161904D02*
X66909523Y-46161904D01*
X67138095Y-46161904D02*
X67138095Y-45361904D01*
X67061904Y-45476190D01*
X66985714Y-45552380D01*
X66909523Y-45590476D01*
X68052380Y-45628571D02*
X68052380Y-46161904D01*
X67709523Y-45628571D02*
X67709523Y-46047619D01*
X67747619Y-46123809D01*
X67823809Y-46161904D01*
X67938095Y-46161904D01*
X68014285Y-46123809D01*
X68052380Y-46085714D01*
X67366666Y-41961904D02*
X66909523Y-41961904D01*
X67138095Y-41961904D02*
X67138095Y-41161904D01*
X67061904Y-41276190D01*
X66985714Y-41352380D01*
X66909523Y-41390476D01*
X68052380Y-41428571D02*
X68052380Y-41961904D01*
X67709523Y-41428571D02*
X67709523Y-41847619D01*
X67747619Y-41923809D01*
X67823809Y-41961904D01*
X67938095Y-41961904D01*
X68014285Y-41923809D01*
X68052380Y-41885714D01*
M02*
