G04 #@! TF.FileFunction,Copper,L1,Top,Signal*
%FSLAX46Y46*%
G04 Gerber Fmt 4.6, Leading zero omitted, Abs format (unit mm)*
G04 Created by KiCad (PCBNEW (2016-06-01 BZR 6870, Git 0ccd3bb)-product) date 07/21/16 14:30:39*
%MOMM*%
%LPD*%
G01*
G04 APERTURE LIST*
%ADD10C,0.150000*%
%ADD11R,0.700000X0.300000*%
%ADD12R,0.850000X0.550000*%
%ADD13R,1.450000X1.150000*%
%ADD14C,2.000000*%
%ADD15R,0.950000X1.000000*%
%ADD16R,1.000000X0.950000*%
%ADD17R,1.900000X1.900000*%
%ADD18C,1.900000*%
%ADD19R,0.950000X0.400000*%
%ADD20C,0.600000*%
%ADD21C,0.250000*%
G04 APERTURE END LIST*
D10*
D11*
X67800000Y-36900000D03*
X67800000Y-36400000D03*
X67800000Y-35900000D03*
X67800000Y-35400000D03*
X65100000Y-35400000D03*
X65100000Y-35900000D03*
X65100000Y-36400000D03*
X65100000Y-36900000D03*
D12*
X70950000Y-34250000D03*
X70950000Y-32950000D03*
X68850000Y-33600000D03*
D13*
X63500000Y-35000000D03*
X63500000Y-36800000D03*
D14*
X62750000Y-41500000D03*
X62750000Y-46000000D03*
X69250000Y-41500000D03*
X69250000Y-46000000D03*
D15*
X68300000Y-38100000D03*
X69900000Y-38100000D03*
D16*
X61750000Y-36900000D03*
X61750000Y-35300000D03*
D15*
X69300000Y-31500000D03*
X70900000Y-31500000D03*
X68300000Y-39600000D03*
X69900000Y-39600000D03*
X63350000Y-38400000D03*
X61750000Y-38400000D03*
X69100000Y-36600000D03*
X70700000Y-36600000D03*
X66300000Y-45800000D03*
X64700000Y-45800000D03*
X64700000Y-41600000D03*
X66300000Y-41600000D03*
D17*
X64730000Y-48500000D03*
D18*
X67270000Y-48500000D03*
D17*
X64930000Y-31500000D03*
D18*
X67470000Y-31500000D03*
D19*
X66900000Y-44350000D03*
X66900000Y-43700000D03*
X66900000Y-43050000D03*
X64700000Y-43050000D03*
X64700000Y-44350000D03*
D20*
X65649999Y-43575001D03*
X68972589Y-38887101D03*
X67096445Y-35396445D03*
D21*
X63500000Y-35000000D02*
X62050000Y-35000000D01*
X62050000Y-35000000D02*
X61750000Y-35300000D01*
X65100000Y-35400000D02*
X63900000Y-35400000D01*
X63900000Y-35400000D02*
X63500000Y-35000000D01*
X65100000Y-35900000D02*
X65100000Y-35400000D01*
X69800000Y-36700000D02*
X69800000Y-38000000D01*
X69800000Y-38000000D02*
X69900000Y-38100000D01*
X69700000Y-36600000D02*
X69800000Y-36700000D01*
X69100000Y-36600000D02*
X69700000Y-36600000D01*
X67800000Y-36900000D02*
X68800000Y-36900000D01*
X68800000Y-36900000D02*
X69100000Y-36600000D01*
X67800000Y-35900000D02*
X68299999Y-35900000D01*
X68299999Y-35900000D02*
X69949999Y-34250000D01*
X69949999Y-34250000D02*
X70275000Y-34250000D01*
X70275000Y-34250000D02*
X70950000Y-34250000D01*
X67800000Y-36400000D02*
X67800000Y-35900000D01*
X70950000Y-34250000D02*
X70800000Y-34250000D01*
X66175000Y-43050000D02*
X66300000Y-42925000D01*
X66300000Y-42925000D02*
X66300000Y-41600000D01*
X64700000Y-45800000D02*
X64700000Y-45775000D01*
X64700000Y-45775000D02*
X63899999Y-44974999D01*
X63899999Y-44974999D02*
X63899999Y-43889999D01*
X63899999Y-43889999D02*
X64214997Y-43575001D01*
X64214997Y-43575001D02*
X65649999Y-43575001D01*
X65649999Y-43575001D02*
X66175000Y-43050000D01*
X66175000Y-43050000D02*
X66900000Y-43050000D01*
X68300000Y-38100000D02*
X68300000Y-38214512D01*
X68300000Y-38214512D02*
X68972589Y-38887101D01*
X68300000Y-39900000D02*
X68300000Y-39859690D01*
X68300000Y-39559690D02*
X68972589Y-38887101D01*
X67800000Y-35400000D02*
X67100000Y-35400000D01*
X67100000Y-35400000D02*
X67096445Y-35396445D01*
X63500000Y-36800000D02*
X63900000Y-36400000D01*
X63900000Y-36400000D02*
X65100000Y-36400000D01*
X70900000Y-31500000D02*
X70900000Y-32900000D01*
X70900000Y-32900000D02*
X70950000Y-32950000D01*
X67500000Y-31500000D02*
X69300000Y-31500000D01*
X70800000Y-39100000D02*
X70800000Y-36700000D01*
X70800000Y-36700000D02*
X70700000Y-36600000D01*
X70300000Y-39600000D02*
X70800000Y-39100000D01*
X69900000Y-39600000D02*
X70300000Y-39600000D01*
X69900000Y-39600000D02*
X70200000Y-39600000D01*
X69250000Y-41050000D02*
X69900000Y-40400000D01*
X69900000Y-40400000D02*
X69900000Y-39600000D01*
X69250000Y-41500000D02*
X69250000Y-41050000D01*
X69250000Y-42000000D02*
X69250000Y-41550000D01*
X69250000Y-46500000D02*
X69250000Y-45085787D01*
X69250000Y-45085787D02*
X69250000Y-42000000D01*
X67270000Y-48500000D02*
X67270000Y-46045000D01*
X67270000Y-46045000D02*
X67025000Y-45800000D01*
X67025000Y-45800000D02*
X66300000Y-45800000D01*
X66300000Y-45200000D02*
X66300000Y-45800000D01*
X66500000Y-45000000D02*
X66300000Y-45200000D01*
X66700000Y-45000000D02*
X66500000Y-45000000D01*
X66900000Y-44800000D02*
X66700000Y-45000000D01*
X66900000Y-44350000D02*
X66900000Y-44800000D01*
X66900000Y-44350000D02*
X64700000Y-44350000D01*
X64700000Y-39025000D02*
X65100000Y-38625000D01*
X65100000Y-38625000D02*
X65100000Y-36900000D01*
X64700000Y-41600000D02*
X64700000Y-39025000D01*
X64700000Y-39025000D02*
X64075000Y-38400000D01*
X64075000Y-38400000D02*
X63350000Y-38400000D01*
X64700000Y-41600000D02*
X62850000Y-41600000D01*
X62850000Y-41600000D02*
X62750000Y-41500000D01*
X64700000Y-43050000D02*
X64700000Y-41600000D01*
X62750000Y-46500000D02*
X62750000Y-45085787D01*
X62750000Y-45085787D02*
X62750000Y-42000000D01*
X65900000Y-34400000D02*
X66700000Y-33600000D01*
X66700000Y-33600000D02*
X68850000Y-33600000D01*
X65900000Y-36700000D02*
X65900000Y-34400000D01*
X65100000Y-36900000D02*
X65700000Y-36900000D01*
X65700000Y-36900000D02*
X65900000Y-36700000D01*
X61750000Y-36900000D02*
X61750000Y-38400000D01*
M02*
